<svg id="Capa_1" data-name="Capa 1" xmlns="http://www.w3.org/2000/svg" viewBox="0 0 330.72 324.71"><defs><style>.cls-1{fill:#333;}.cls-1,.cls-10,.cls-11,.cls-12,.cls-13,.cls-2,.cls-3,.cls-4,.cls-5,.cls-6,.cls-7,.cls-8,.cls-9{fill-rule:evenodd;}.cls-2{fill:#041c32;}.cls-3{fill:#020205;}.cls-4{fill:#181742;}.cls-5{fill:#2c2d61;}.cls-6{fill:#fcb831;}.cls-7{fill:#de710a;}.cls-8{fill:#404a83;}.cls-9{fill:#05050f;}.cls-10{fill:#202051;}.cls-11{fill:#80f6ff;}.cls-12{fill:#5ab3ff;}.cls-13{fill:#1e2152;}</style></defs><path class="cls-1" d="M260.73,425.54C156.42,364.93,100.89,264.37,98.21,146.84l6.65-1.94A996.11,996.11,0,0,1,252.47,116c59-6.41,118.72-7,176.26-.94C432.82,240.24,372.18,371.46,260.73,425.54Z" transform="translate(-98.21 -100.83)"/><path class="cls-2" d="M108.46,154.47s151.1-47,310.49-30.34c3.69,113.09-57.33,235.21-158.22,290-59.86-35.07-102.18-86.38-129.42-150C118.64,234.57,109.29,190.76,108.46,154.47Z" transform="translate(-98.21 -100.83)"/><path class="cls-2" d="M108.46,154.47h0l0,0h.06l.07,0,.1,0,.11,0h0l.1,0,.14,0,.16,0,.14,0h0l.19-.06.2-.06.23-.07.1,0,.14,0,.25-.07.27-.08.29-.09h0l.29-.09.32-.09.33-.1.72-.2.38-.11,1.23-.35.44-.13.93-.26.49-.13c3.45-1,8-2.2,13.52-3.62l.8-.2,5-1.27.89-.22h0l2.42-.59.27-.07.94-.22c52.59-12.69,163.48-33.92,278.72-21.87,0,0-159.5,2.34-279.23,25.23-7.1,46.87-7.78,113.57,26.43,177.69a344.83,344.83,0,0,1-34.84-62.92C118.64,234.57,109.29,190.76,108.46,154.47Z" transform="translate(-98.21 -100.83)"/><path class="cls-3" d="M336.8,127.4a119.64,119.64,0,0,1,17.42,25.32,176.46,176.46,0,0,1,11.17,25.82c1,2.84,1.89,5.72,2.74,8.62.36,1.23.67,2.59,1.08,3.79.62,1.6-.15,3.7-.84,5.37-.77,1.85-1.7,3.7-2.65,5.49-1.19,2.26-2.45,4.54-3.76,6.76,1.17,2.79,2.82,7.12,2.81,9.36,0,2-1.49,6.2-2.19,8.29-.11.33-.23.66-.34,1l7-6,1.7.65q2.75,1,5.35,2.32c1.34-1.61,2.68-3.22,4-4.85,9.9-12.12,19.29-24.71,28.3-37.42q4.23-6,8.37-12a335.83,335.83,0,0,1-9.56,49.43q-7,9.16-14.44,17.94a30.62,30.62,0,0,1,3.46,5.43c.8,1.64,2,4.15.75,6.15l-5.29,8.51c.68.62,1.35,1.23,2,1.85C371.43,314.39,334.64,364,286.87,397.8q-13.12,8.42-27.19,15.68a299.67,299.67,0,0,1-91.39-83.41,277.2,277.2,0,0,1-22.95-57.22l-.59-2.08,2-1.46q8.13-6.06,16.4-12l-2.64-8.51c-.62-2,1.35-4.51,2.66-6.15a48.79,48.79,0,0,1,5.15-5.43c-10.16-19.16-18.94-39.92-24.53-61.33l-.36-1.39,1-1.3a66.35,66.35,0,0,1,5.57-6.62c2.52-2.61,6.47-6.21,10.08-5.41a4.38,4.38,0,0,1,3.15,2.78l0,.07,0,.07c2.08,6,4.37,11.91,6.69,17.76,5.05,12.71,10.53,25.3,16.65,37.42.82,1.63,1.65,3.24,2.5,4.85q3-1.29,6.07-2.32l1.9-.65,5.16,6,0-1c0-2.09-.23-6.26.39-8.29.68-2.24,3.69-6.57,5.72-9.36-.61-2.22-1.17-4.5-1.65-6.76a49.93,49.93,0,0,1-.94-5.49c-.17-1.67-.29-3.77.83-5.37.78-1.2,1.52-2.56,2.26-3.79q2.63-4.35,5.42-8.62a264.93,264.93,0,0,1,19.21-25.82c5.94-7,12.06-12.55,19-18.87C282.22,131.12,311.91,128.64,336.8,127.4Z" transform="translate(-98.21 -100.83)"/><path class="cls-4" d="M177.53,232.21a36,36,0,0,1,3.45-1.57L185.4,229l-10.81-10.68-1.8.64c-1.93.7-3.84,1.47-5.7,2.32-1.1-1.6-2.19-3.22-3.26-4.84-8-12.12-15.44-24.71-22.47-37.42-3.24-5.86-6.45-11.79-9.46-17.77l0-.07,0-.07a5.47,5.47,0,0,0-3.58-2.78c-3.74-.8-7.13,2.81-9.24,5.42a52.73,52.73,0,0,0-4.54,6.62l-.74,1.3.57,1.38c8.92,21.42,20.94,42.17,34.08,61.34a38.48,38.48,0,0,0-4.31,5.43c-1.05,1.63-2.63,4.15-1.7,6.14l5.1,11,3.07-3.39q2.22-2.44,4.57-4.75,5.57,7.85,11.42,15.47c1.75,2.28,3.53,4.57,5.37,6.77l1.79,2.16L197,256.72l-2.25-2.54A263.62,263.62,0,0,1,177.53,232.21Z" transform="translate(-98.21 -100.83)"/><path class="cls-5" d="M129.19,162.59s27.41,54.48,52.51,82.78l-14.07,9.91S135.91,217,117.09,171.85C117.09,171.85,125.82,156.69,129.19,162.59Z" transform="translate(-98.21 -100.83)"/><path class="cls-3" d="M132.48,168.94c1.24,2.35,2.79,5.25,4.61,8.57-.47.71-1,1.46-1.44,2.26a5.06,5.06,0,0,0,3,7.53c1.5.39,3,.83,4.6,1.33,1.23,2.16,2.53,4.4,3.88,6.69a4.76,4.76,0,0,0-1.15,1.29c-.16.26-.33.52-.49.79a5,5,0,0,0,3.05,7.52c1.35.35,2.72.75,4.13,1.19a5.15,5.15,0,0,0,1.08.21c1.18,1.92,2.4,3.86,3.63,5.79a5.08,5.08,0,0,0-2.34,2.33l-.08.16a4.94,4.94,0,0,0,.06,4.55,4.89,4.89,0,0,0,3.69,2.66q2.81.45,5.81,1.14l2,3a83.6,83.6,0,0,0-10.93-2.14,5,5,0,0,0-5.51,3.67c-.28,1-.53,2-.77,3l-1-1.45h0l-.12-.19h0c-1-1.51-2-3.08-3.09-4.69l0-.05,0,0h0l0-.05,0,0v0l0-.05,0,0h0l0-.05,0,0h0l0-.05,0,0h0l0,0,0,0v0l0-.05,0,0h0l0-.05,0,0h0l0-.05,0-.05h0l0-.06,0,0h0l0-.05,0,0h0l0-.05,0-.05h0l0-.06,0,0h0l0-.05,0,0h0l0-.05,0,0-1.14-1.79c1.05,0,2.14-.06,3.27,0a5,5,0,0,0,4.69-3.12c.46-1.08.92-2.11,1.37-3.09a5,5,0,0,0-3.23-7c-1.3-.36-2.58-.68-3.82-1a5,5,0,0,0-5.84,3.14q-.63,1.65-1.2,3.42c-.39-.63-.77-1.26-1.15-1.91h0c-1.41-2.38-2.83-4.81-4.24-7.31h0l-.9-1.59a5.71,5.71,0,0,0,.83.11q1.68.09,3.48.27a5,5,0,0,0,5-2.66c.48-.91,1-1.78,1.44-2.6a5.05,5.05,0,0,0-3-7.41c-1.47-.42-2.9-.78-4.29-1.09a5,5,0,0,0-5.84,3.14c-.43,1.14-.85,2.32-1.24,3.54-.55-1-1.09-2.08-1.63-3.13h0q-1.19-2.26-2.32-4.58l0-.06h0v0l0,0v-.05l0-.05v0l0,0,0-.05v0l0,0,0,0,0,0v0l0-.06,0,0v0l0-.05,0,0v0l0-.06v0l0-.05,0,0h0l0-.05,0,0c-.37-.77-.75-1.54-1.12-2.32a5.28,5.28,0,0,0,1.51.33l2.12.18a5,5,0,0,0,5-2.65c.76-1.44,1.53-2.78,2.28-4a5.06,5.06,0,0,0-3-7.52c-1.12-.3-2.21-.57-3.28-.81a5,5,0,0,0-5.84,3.14q-.91,2.4-1.7,5c-.33-.72-.65-1.44-1-2.17h0c-.62-1.41-1.23-2.82-1.82-4.25,0,0,.29-.49.78-1.27h0l0,0h0l0,0h0l0,0,0-.08v0l.13-.2h0l.09-.13h0l.06-.09,0,0h0l0-.05,0,0,.09-.15h0l.31-.46h0l.33-.49h0c.32-.46.66-.95,1-1.45l-1.06-.48,4.4-4.83.65.82a4.8,4.8,0,0,1,3.29-1.48,5.06,5.06,0,0,0,3.23,7.21C131.26,168.6,131.87,168.77,132.48,168.94Z" transform="translate(-98.21 -100.83)"/><path class="cls-4" d="M172,229.61a287.72,287.72,0,0,0,20.5,26.58l-18.28,12.88s-7.88-9.5-18.79-25.1A74,74,0,0,1,172,229.61Z" transform="translate(-98.21 -100.83)"/><path class="cls-6" d="M179.9,227.81s-15.41,5.78-31.61,23.66l-3.18-6.82c-.4-.85,6.95-15.05,28.71-22.86Z" transform="translate(-98.21 -100.83)"/><path class="cls-7" d="M154.4,245.22l-6.11,6.25-1.71-7.06c-.19-.42,0-3.85,4.41-8.41.09,4.95.21,5.66,2.79,7.86.74-.92,1.68-1.63,2.38-2.47a17.41,17.41,0,0,1-1.67-.82c-.94-.52-1.65-3.13-2.15-5.91.58-.56,1.2-1.12,1.86-1.69,1.13,4.15.8,3.77,4.76,5.11,2.09-2.42,3.49-4,3.49-4,2.2-1.27,12.15-5.71,17.45-6.31,0,0-7.85,2.94-18.24,11.14Z" transform="translate(-98.21 -100.83)"/><path class="cls-4" d="M171.88,222.52s-9.45,4-13.49,7.17-11.09,10.73-11.09,10.73,5-13.87,8.5-15.35A39.58,39.58,0,0,1,171.88,222.52Z" transform="translate(-98.21 -100.83)"/><path class="cls-8" d="M132.48,168.94c-.61-.17-1.22-.34-1.83-.49a5.06,5.06,0,0,1-3.23-7.21,2.38,2.38,0,0,1,1.77,1.35s1.19,2.36,3.29,6.35Zm22.59,50.21a4.94,4.94,0,0,1-.06-4.55l.08-.16a5.08,5.08,0,0,1,2.34-2.33c2.3,3.61,4.67,7.22,7.08,10.76l-.19,0c-1.91-.43-3.77-.79-5.56-1.08a4.89,4.89,0,0,1-3.69-2.66Zm-6.48-14.23a5,5,0,0,1-3.05-7.52c.16-.27.33-.53.49-.79a4.76,4.76,0,0,1,1.15-1.29c2.09,3.57,4.31,7.26,6.62,11a5.15,5.15,0,0,1-1.08-.21c-1.41-.44-2.78-.84-4.13-1.19Zm-5.29-16.29c-1.57-.5-3.1-.94-4.6-1.33a5.06,5.06,0,0,1-3-7.53c.49-.8,1-1.55,1.44-2.26C138.91,180.85,141,184.6,143.3,188.63Z" transform="translate(-98.21 -100.83)"/><path class="cls-4" d="M343.92,232.21a34.74,34.74,0,0,0-3.44-1.57L336.06,229l10.81-10.68,1.8.64q2.9,1,5.7,2.32c1.1-1.6,2.18-3.22,3.25-4.84,8-12.12,15.45-24.71,22.48-37.42,3.24-5.86,6.45-11.79,9.46-17.77l0-.07,0-.07a5.47,5.47,0,0,1,3.58-2.78c3.73-.8,7.12,2.81,9.23,5.42a51.69,51.69,0,0,1,4.54,6.62l.75,1.3-.57,1.38c-8.93,21.42-20.94,42.17-34.08,61.34a38.41,38.41,0,0,1,4.3,5.43c1.06,1.63,2.64,4.15,1.71,6.14l-5.11,11-3.07-3.39q-2.21-2.44-4.56-4.75-5.57,7.85-11.43,15.47c-1.75,2.28-3.53,4.57-5.36,6.77l-1.79,2.16-23.35-16.44,2.26-2.54A261.43,261.43,0,0,0,343.92,232.21Z" transform="translate(-98.21 -100.83)"/><path class="cls-5" d="M392.27,162.59s-27.42,54.48-52.51,82.78l14.06,9.91s31.72-38.24,50.54-83.43C404.36,171.85,395.64,156.69,392.27,162.59Z" transform="translate(-98.21 -100.83)"/><path class="cls-3" d="M389,168.94c-1.23,2.35-2.78,5.25-4.6,8.57.47.71.95,1.46,1.44,2.26a5.07,5.07,0,0,1-3.05,7.53c-1.5.39-3,.83-4.6,1.33-1.24,2.16-2.53,4.4-3.88,6.69a5.11,5.11,0,0,1,1.15,1.29l.49.79a5.06,5.06,0,0,1-3.05,7.52c-1.35.35-2.73.75-4.13,1.19a5.15,5.15,0,0,1-1.08.21c-1.19,1.92-2.4,3.86-3.63,5.79a5,5,0,0,1,2.33,2.33l.09.16a5.06,5.06,0,0,1-3.75,7.21q-2.82.45-5.81,1.14c-.68,1-1.36,2-2.05,3a84.25,84.25,0,0,1,10.93-2.14,5,5,0,0,1,5.52,3.67c.27,1,.53,2,.77,3l1-1.45h0l.12-.19h0c1-1.51,2-3.08,3.09-4.69l0-.05,0,0h0l0-.05,0,0v0l0-.05,0,0h0l0-.05,0,0h0l0-.05,0,0h0l0,0,0,0v0l0-.05,0,0h0l0-.05,0,0h0l0-.05,0-.05h0l0-.06,0,0h0l0-.05,0,0h0l0-.05,0-.05h0l0-.06,0,0h0l0-.05,0,0h0l0-.05,0,0,1.14-1.79c-1.05,0-2.14-.06-3.27,0a5,5,0,0,1-4.7-3.12c-.45-1.08-.91-2.11-1.37-3.09a5.06,5.06,0,0,1,3.24-7c1.3-.36,2.57-.68,3.82-1a5,5,0,0,1,5.84,3.14q.63,1.65,1.2,3.42l1.15-1.91h0c1.41-2.38,2.83-4.81,4.24-7.31h0l.89-1.59a5.53,5.53,0,0,1-.83.11c-1.11.06-2.27.15-3.47.27a5,5,0,0,1-5-2.66c-.48-.91-1-1.78-1.45-2.6a5.07,5.07,0,0,1,3-7.41c1.46-.42,2.89-.78,4.29-1.09a5,5,0,0,1,5.84,3.14c.43,1.14.85,2.32,1.24,3.54.55-1,1.09-2.08,1.63-3.13h0c.78-1.51,1.56-3,2.32-4.58l0-.06h0l0,0,0,0v-.05l0-.05v-.06l0-.05v-.05l0,0v0l0,0,0-.06,0,0v0l0-.05,0,0v0l0-.06,0,0v0l0-.05,0,0h0l0-.05v0c.38-.77.76-1.54,1.13-2.32a5.28,5.28,0,0,1-1.51.33l-2.13.18a5,5,0,0,1-5-2.65c-.76-1.44-1.53-2.78-2.28-4a5.06,5.06,0,0,1,3-7.52c1.11-.3,2.21-.57,3.28-.81a5,5,0,0,1,5.84,3.14c.6,1.6,1.18,3.27,1.7,5l1-2.17h0c.62-1.41,1.22-2.82,1.81-4.25,0,0-.28-.49-.77-1.27h0l0,0h0l0,0h0l0,0-.05-.08v0l-.14-.2h0l-.08-.13h0l-.06-.09,0,0h0l0-.05,0,0-.1-.15h0c-.09-.15-.19-.3-.3-.46h0l-.33-.49h0c-.31-.46-.65-.95-1-1.45l1.07-.48L398,161.9l-.65.82a4.8,4.8,0,0,0-3.29-1.48,5.06,5.06,0,0,1-3.23,7.21C390.2,168.6,389.59,168.77,389,168.94Z" transform="translate(-98.21 -100.83)"/><path class="cls-4" d="M349.46,229.61A287.72,287.72,0,0,1,329,256.19l18.28,12.88s7.87-9.5,18.78-25.1A73.73,73.73,0,0,0,349.46,229.61Z" transform="translate(-98.21 -100.83)"/><path class="cls-6" d="M341.56,227.81s15.41,5.78,31.61,23.66l3.18-6.82c.39-.85-7-15.05-28.71-22.86Z" transform="translate(-98.21 -100.83)"/><path class="cls-7" d="M367.05,245.22l6.12,6.25,1.7-7.06c.2-.42,0-3.85-4.41-8.41-.08,4.95-.2,5.66-2.78,7.86-.75-.92-1.69-1.63-2.38-2.47a17.41,17.41,0,0,0,1.67-.82c.94-.52,1.64-3.13,2.15-5.91-.58-.56-1.2-1.12-1.86-1.69-1.13,4.15-.8,3.77-4.77,5.11-2.08-2.42-3.48-4-3.48-4-2.2-1.27-12.16-5.71-17.45-6.31,0,0,7.85,2.94,18.24,11.14Z" transform="translate(-98.21 -100.83)"/><path class="cls-4" d="M349.57,222.52s9.45,4,13.49,7.17,11.1,10.73,11.1,10.73-5-13.87-8.5-15.35A39.6,39.6,0,0,0,349.57,222.52Z" transform="translate(-98.21 -100.83)"/><path class="cls-8" d="M389,168.94c.62-.17,1.23-.34,1.84-.49a5.06,5.06,0,0,0,3.23-7.21,2.38,2.38,0,0,0-1.77,1.35s-1.19,2.36-3.3,6.35Zm-22.58,50.21a4.94,4.94,0,0,0,.06-4.55l-.09-.16a5,5,0,0,0-2.33-2.33c-2.3,3.61-4.67,7.22-7.08,10.76l.19,0q2.87-.64,5.56-1.08a4.92,4.92,0,0,0,3.69-2.66Zm6.48-14.23a5.06,5.06,0,0,0,3.05-7.52l-.49-.79a5.11,5.11,0,0,0-1.15-1.29c-2.09,3.57-4.31,7.26-6.62,11a5.15,5.15,0,0,0,1.08-.21c1.4-.44,2.78-.84,4.13-1.19Zm5.29-16.29c1.56-.5,3.1-.94,4.6-1.33a5.07,5.07,0,0,0,3.05-7.53c-.49-.8-1-1.55-1.44-2.26C382.55,180.85,380.46,184.6,378.16,188.63Z" transform="translate(-98.21 -100.83)"/><path class="cls-9" d="M339.89,228.75c3.13,1.83,6.18,3.88,9.15,5.93,4.25,2.95,8.42,6,12.54,9.17,9.54,7.25,18.93,14.84,28.09,22.57l.49.41,1.24,1.05-.91,2.07c-30.3,69.29-64.15,107.44-129.22,145.76C198.12,379.14,160,336.31,131,270l-.91-2.07,1.74-1.46c9.16-7.73,18.55-15.32,28.09-22.57,4.12-3.14,8.29-6.22,12.54-9.17,3-2.05,6-4.1,9.15-5.93q-.57-2.72-1.06-5.43c-.38-2.08-1.21-6.25-.9-8.28.33-2.25,2.67-6.58,4.26-9.36-1-2.23-1.87-4.5-2.71-6.76-.66-1.79-1.31-3.64-1.79-5.49-.43-1.67-.87-3.77,0-5.37.59-1.2,1.12-2.56,1.67-3.8q2-4.35,4.08-8.62a214.26,214.26,0,0,1,15.19-25.82c14.61-21.19,34.41-40.84,59.51-48.7l.91-.29.91.29c25.09,7.86,44.9,27.51,59.51,48.7a214.26,214.26,0,0,1,15.19,25.82q2.13,4.28,4.08,8.62c.55,1.24,1.08,2.6,1.67,3.8.87,1.6.42,3.7,0,5.37a53.28,53.28,0,0,1-1.79,5.49c-.84,2.26-1.75,4.53-2.7,6.76,1.59,2.78,3.92,7.11,4.26,9.36.3,2-.53,6.2-.9,8.28Q340.46,226,339.89,228.75Z" transform="translate(-98.21 -100.83)"/><path class="cls-5" d="M336.46,230.28s2.73-12.52,2.39-14.79-4.66-9.61-4.66-9.61,6.36-14.36,5.23-16.38S312.37,120.2,260.73,104C209.09,120.2,183.18,187.48,182,189.5s5.23,16.38,5.23,16.38-4.32,7.33-4.66,9.61S185,230.28,185,230.28c-15.73,8.69-45.95,34-51.26,38.46,23.08,52.76,61.86,107.2,127,141.92,65.13-34.72,103.9-89.16,127-141.92C382.41,264.26,352.19,239,336.46,230.28Z" transform="translate(-98.21 -100.83)"/><path class="cls-10" d="M336.46,230.28s2.73-12.52,2.39-14.79-4.66-9.61-4.66-9.61,4.82-11,5.31-15.11l-9.95-.63c-.06,3-.91,16.43-12.23,1.34A81.46,81.46,0,0,0,289,167.56c11.4-1.89,17.73,1.22,17.73,1.22l6.47-5.42c-8.26-20.51-14.59-30.39-32.88-42.27l-5.61,14.47c10.25,1.19,27.75,12.76,29.68,20.25a53.79,53.79,0,0,0-23.48-1l-2.74,18.13s43.92,12,63.94,87.2c0,0-23.82,54.69-76.93,88.19l-47.5-25.85C207.46,307,199.89,292,192.42,273.81l4-24.57L183.28,266.4l7.57,33.7,70.88,96.67s74.64-46.1,87.54-82.14c10.37-29,8-60.15,6.67-71.23A190.67,190.67,0,0,0,336.46,230.28Z" transform="translate(-98.21 -100.83)"/><path class="cls-3" d="M332.67,229.76s6.46-12.37,6.18-14.27-.49-4.57-1.79-6.9a57.39,57.39,0,0,0-9.53-2.8c5.79-3.79,12.78-15,12.78-15-17.4-26.66-46.26-83.21-79.58-86.81,31.1,7.65,52.65,52.12,59.12,80.5,0,0-7.34-13.16-30.86-16.95,0,0,37.81,40.59,46.92,100.79-7.11,29.76-72.21,90.54-72.21,90.54L232,336.42l-6.31,10.92,36.09,49.43s-39.55-31.25-61-60.46l-12.35,11.9c25.84,28.92,46.26,50.75,73.79,65.13,2-1,66.35-44.5,80.45-70,14.51-23.43,23.66-47.47,30.6-69.55-4.31-4.48-8-8.37-11.28-11.91a231.69,231.69,0,0,1-13.08,55.9s5.9-40.22.87-69.22C344.38,242.62,339.33,237,332.67,229.76Z" transform="translate(-98.21 -100.83)"/><polygon class="cls-3" points="77.29 135.42 42.87 170.43 56.81 146.75 67.89 138.36 77.29 135.42"/><path class="cls-3" d="M305.61,156.82s-3.83-8.4-11.71-12.63l-10.74,3.19A51.82,51.82,0,0,1,305.61,156.82Z" transform="translate(-98.21 -100.83)"/><path class="cls-3" d="M271.45,106.55l-2.4,18.59,9.21-14.51a14.16,14.16,0,0,0-6.81-4.08Zm-22.38,0,2.4,18.59-9.21-14.51a14.16,14.16,0,0,1,6.81-4.08Zm15.33-3.22s-1.26,10-3.67,30.35l-5.43-29.34,5.24-2Z" transform="translate(-98.21 -100.83)"/><path class="cls-3" d="M217.67,322.47s-20.42-36-25.25-48.66c0,0-2.26,20.54-2,25.6C190.37,299.41,197.65,310.66,217.67,322.47Z" transform="translate(-98.21 -100.83)"/><path class="cls-3" d="M182.61,215.49,192.76,243l-16.61-7.13h0c3.23-2.19,6.24-4.1,8.86-5.54C185,230.28,182.27,217.76,182.61,215.49Z" transform="translate(-98.21 -100.83)"/><path class="cls-5" d="M284.16,349.38l29.61-27.2,23.39-39s-10.75,43-12.22,45.1S284.16,349.38,284.16,349.38Z" transform="translate(-98.21 -100.83)"/><path class="cls-8" d="M175.49,236.25c-11.54,9.57-28.83,29.35-34.41,35,7.33,16.77,12.41,34,19.76,47.59l-7.35-44.34C157.43,265,175.45,236.31,175.49,236.25Z" transform="translate(-98.21 -100.83)"/><path class="cls-8" d="M253.51,108.93c-1.31.68-2.61,1.37-3.87,2.07l.29,2.19q1.95-1.55,4-3l-.42-1.22Zm-13,7.69c-37.62,25.44-52.06,74.79-53.07,76.44l8.51,9.67,15.3-10.2-13.56,1.69a145.71,145.71,0,0,1,45.57-75.47Z" transform="translate(-98.21 -100.83)"/><path class="cls-8" d="M231.26,170.89s15.94-9.86,28.33-13.4c0,0,10.12,3.41,13.28,7.08,0,0-8.35-14.79-13.91-19.09C259,145.48,243.78,151.8,231.26,170.89Z" transform="translate(-98.21 -100.83)"/><path class="cls-8" d="M213.79,331.39l38.44,52.37s-15-9-30.67-26.06Z" transform="translate(-98.21 -100.83)"/><path class="cls-5" d="M272.61,389.48,306,362.16s-19.23,5.57-24,10.88S272.61,389.48,272.61,389.48Z" transform="translate(-98.21 -100.83)"/><path class="cls-4" d="M182,189.5c-1.14,2,5.23,16.38,5.23,16.38l8.57,12.49,10.75-17.7-10.5,4.93Z" transform="translate(-98.21 -100.83)"/><polygon class="cls-4" points="89.64 98.07 94.83 74.77 85.72 94.08 89.64 98.07"/><path class="cls-6" d="M182.61,215.49,198,245.86a81.85,81.85,0,0,1,2.47-11.28c2.2-8.31,22.21-38.1,22.21-38.1,24.5-22.84,37.52-26,37.52-26l14.91,29.17,10.22-9.76c-9.71-14.2-25.23-24.05-25.23-24.05S222,188,218.84,190.47,195.44,226,195.44,226Z" transform="translate(-98.21 -100.83)"/><path class="cls-7" d="M285.32,189.86c-9.71-14.2-25.23-24.05-25.23-24.05l.05,2.32S275,177.8,285.32,189.86Z" transform="translate(-98.21 -100.83)"/><path class="cls-7" d="M182.61,215.49,198,245.86a81.85,81.85,0,0,1,2.47-11.28c2-7.44,18.18-32,21.58-37.16-4.38.26-5.33-2.27-5.39-4.35-6.17,8.37-20.53,37.56-20.53,37.56l-13.51-15.14Zm42.56-21.3a8.32,8.32,0,0,1-5.38-4.38c1.43-.95,4.08-2.58,7.36-4.56-1,3.53-.29,5.32,1.23,6.07C227.33,192.24,226.26,193.19,225.17,194.19Z" transform="translate(-98.21 -100.83)"/><path class="cls-9" d="M260.19,170.45s-57,30.81-63.53,97.31c0,0,19.24,41.63,64.07,62.35,44.53-21.45,64-62.56,64.07-62.35C318.23,201.66,260.08,171,260.19,170.45Z" transform="translate(-98.21 -100.83)"/><path class="cls-11" d="M235.8,314.86a210.61,210.61,0,0,0,24.36,13.67s39.37-13.78,64.64-60.77c0,0-2.2-19.29-7.28-30.65a145.69,145.69,0,0,1,12.75,31.78s-19.33,40.95-69.54,66.37C260.73,335.26,248.22,330,235.8,314.86Z" transform="translate(-98.21 -100.83)"/><path class="cls-12" d="M260.48,332s36.26-16,61.5-59.24h0l1.93-3.38h0l.89-1.62a3.44,3.44,0,0,1,5.47,1.13l-2.8,5.13c-6.94,11.77-27.33,41.29-66.74,61.24,0,0-8.52-3.59-18.48-13.35,5.93,3.28,12.19,7.24,18.23,10.1Zm68.9-66.33c-.38-1.25-1.11-3.6-1.5-4.8a10.66,10.66,0,0,0-3.84,1.44c.14.89.26,1.7.36,2.41C324.76,263.69,327.28,262.75,329.38,265.68Z" transform="translate(-98.21 -100.83)"/><path class="cls-11" d="M268.49,309.05c5.48-3.54,11.75-7.4,18.75-14s19.52-24.23,19.52-24.23-7.49,27.54-12.37,32.77c-2.24,2.39-24.26,13-33.75,18-9.49-5-31.33-15.64-33.57-18-4.88-5.23-12.37-32.77-12.37-32.77s9.93,17.08,19.52,24.23l18.75,14,7.76-6.83Z" transform="translate(-98.21 -100.83)"/><path class="cls-12" d="M214.7,270.85s9.93,17.08,19.52,24.23l18.75,14-25.8-15.6C223.59,288.81,214.7,270.85,214.7,270.85Z" transform="translate(-98.21 -100.83)"/><path class="cls-12" d="M268.91,311.48l20.23-13.56,17.62-27.07s-7.49,27.54-12.37,32.77c-2.24,2.39-24.26,13-33.75,18l3.75-9.13-2.66-7.47Z" transform="translate(-98.21 -100.83)"/><path class="cls-12" d="M307.74,279.66l1.95-11.2,8.23-7.73s-1.69,8.5-2.78,10.34S307.74,279.66,307.74,279.66Z" transform="translate(-98.21 -100.83)"/><path class="cls-11" d="M213.65,279.66l-2-11.2-8.23-7.73s1.69,8.5,2.78,10.34S213.65,279.66,213.65,279.66Z" transform="translate(-98.21 -100.83)"/><polygon class="cls-5" points="162.52 89.13 179.95 96.8 162.52 81.47 145.1 96.8 162.52 89.13"/><path class="cls-5" d="M268,218.7l9.51-3.31,3.56,6.23-.27.08c-5.58,1.5-12.8-3-12.8-3Zm12.89-4.49.63,1,1.11,5.74c5-2.78,9.61-10.67,9.61-10.67Z" transform="translate(-98.21 -100.83)"/><polygon class="cls-5" points="177.81 103.74 186.66 127.87 184.87 114.25 177.81 103.74"/><path class="cls-12" d="M253.43,218.7l-24.24-8.44s5.85,9.94,11.44,11.44S253.43,218.7,253.43,218.7Z" transform="translate(-98.21 -100.83)"/><path class="cls-12" d="M197,132.44c-4.53,9.83-11.68,52.45,35,79.43C223.63,207.85,172.39,178.15,197,132.44Z" transform="translate(-98.21 -100.83)"/><path class="cls-8" d="M260.73,231.53c-3.16.65-17.11,4.31-17.11,4.31a235.05,235.05,0,0,1-28.26-7.2l-3.79,18.5c9.45,16,26,38.51,49.16,50.26,23.18-11.75,39.71-34.29,49.15-50.26l-3.78-18.5a235.05,235.05,0,0,1-28.26,7.2S263.89,232.18,260.73,231.53Z" transform="translate(-98.21 -100.83)"/><path class="cls-4" d="M256.72,232.48c-5.26,1.3-13.1,3.36-13.1,3.36a235.05,235.05,0,0,1-28.26-7.2l18.82,12.83,9.2,25.93L245,243l15.78-7.29,14,6.08L266,248.92l-5.3,48.48c12.88-6.53,23.71-16.4,32.41-26.61,3.71-6.69,12.22-23.72,12.22-23.72l-4.26-15.39,5-3a235.05,235.05,0,0,1-28.26,7.2s-6.26-1.64-11.34-2.92l-2.39,1.7-3.38-3.09-3.9,3Z" transform="translate(-98.21 -100.83)"/><polygon class="cls-8" points="203.35 130.57 187.2 141.25 177.28 163.43 190.23 143.49 204.57 132.26 203.35 130.57"/><path class="cls-13" d="M259.65,290.88l-3.6-42.26-10-3.88c-.1,2.67-.44,6.36-.37,11.21C245.72,256,252,272.55,259.65,290.88Z" transform="translate(-98.21 -100.83)"/><path class="cls-11" d="M305.36,247.07s-1.45,2.9-3.41,6.78c-2.8,5.51-6.63,13-8.81,16.94a164.93,164.93,0,0,0,12.55-16.89c1.52-2.34,2.92-4.61,4.19-6.76l-3-14.57Z" transform="translate(-98.21 -100.83)"/><path class="cls-12" d="M305.36,247.07s-1.45,2.9-3.41,6.78c-2.8,5.51-6.63,13-8.81,16.94a164.93,164.93,0,0,0,12.55-16.89c1.52-2.34,2.92-4.61,4.19-6.76Z" transform="translate(-98.21 -100.83)"/><path class="cls-6" d="M264.79,237l12.49,3.91-1.8,23.4,7.74-24.34,22.88-11.28a235.05,235.05,0,0,1-28.26,7.2l-17.11-6.76-17.11,6.76a235.05,235.05,0,0,1-28.26-7.2l21.85,10.77,6.17,28,.12-26.32L257,236.86l3.76,60.54Z" transform="translate(-98.21 -100.83)"/><path class="cls-7" d="M276.48,251.29l-1,13,4-12.73c-1,3.19-3.22,2-3-.24Zm-36.78-.56,3.68,16.67.07-16.67c0,3.51-3,3.22-3.75,0Zm19.23,17.72,1.8,28.95,1.95-29C262.37,272.94,259.13,271.62,258.93,268.45Z" transform="translate(-98.21 -100.83)"/><polygon class="cls-7" points="145.41 135 162.52 127.07 179.63 135 162.52 130.7 145.41 135"/><path class="cls-11" d="M216.1,247.07s1.45,2.9,3.41,6.78c2.79,5.51,6.63,13,8.8,16.94a164.76,164.76,0,0,1-12.54-16.89c-1.53-2.34-2.93-4.61-4.2-6.76l3-14.57Z" transform="translate(-98.21 -100.83)"/><path class="cls-12" d="M216.1,247.07s1.45,2.9,3.41,6.78c2.79,5.51,6.63,13,8.8,16.94a164.76,164.76,0,0,1-12.54-16.89c-1.53-2.34-2.93-4.61-4.2-6.76Z" transform="translate(-98.21 -100.83)"/></svg>